[Header]			# Header keywords are followed by a single value
FileType htr		# single word string
DataType HTRS		# Hierarchical translations followed by rotations and Scale
FileVersion 1		# integer
NumSegments 20		# integer
NumFrames 7		# integer
DataFrameRate 60	# integer
EulerRotationOrder ZYX	# one word string
CalibrationUnits mm	# one word string
RotationUnits Degrees	# one word string
GlobalAxisofGravity Y	# character, X or Y or Z
BoneLengthAxis Y
ScaleFactor 1.000000
[SegmentNames&Hierarchy]
#CHILD	PARENT
LowerTorso	GLOBAL
UpperTorso	LowerTorso
LCollarBone	UpperTorso
RCollarBone	UpperTorso
LUpArm	LCollarBone
RUpArm	RCollarBone
LLowArm	LUpArm
RLowArm	RUpArm
LHand	LLowArm
RHand	RLowArm
LPelvis	LowerTorso
RPelvis	LowerTorso
LThigh	LPelvis
RThigh	RPelvis
LLowLeg	LThigh
RLowLeg	RThigh
LFoot	LLowLeg
RFoot	RLowLeg
Neck	UpperTorso
Head	Neck
[BasePosition]
#SegmentName Tx, Ty, Tz, Rx, Ry, Rz, BoneLength
LowerTorso	0.000000	0.000000	0.000000	0.000000	0.000000	0.000000	247.497849
UpperTorso	0.000000	247.497849	0.000000	-3.483188	-0.016176	-0.898562	303.935425
LCollarBone	0.000000	303.935425	0.000000	-2.778975	2.380151	-103.909637	160.814774
RCollarBone	0.000000	303.935425	0.000000	1.923138	-2.431442	97.423370	173.085861
LUpArm	0.000000	160.814774	0.000000	9.905276	-0.146364	3.830753	266.228302
RUpArm	0.000000	173.085861	0.000000	3.559436	0.163580	4.186032	250.544907
LLowArm	0.000000	266.228302	0.000000	0.604391	2.460426	18.478745	239.401855
RLowArm	0.000000	250.544907	0.000000	-4.677841	-1.676118	-16.763147	247.676224
LHand	0.000000	239.401855	0.000000	-2.922581	-1.504997	-10.879651	178.693573
RHand	0.000000	247.676224	0.000000	8.087741	0.221451	14.771751	171.097885
LPelvis	0.000000	0.000000	0.000000	25.628080	-1.004481	-103.107483	127.213554
RPelvis	0.000000	0.000000	0.000000	7.212610	1.026056	95.806335	154.731140
LThigh	0.000000	127.213554	0.000000	-8.629928	-24.934669	-78.343170	392.414856
RThigh	0.000000	154.731140	0.000000	-0.087953	7.045837	82.361420	403.151337
LLowLeg	0.000000	392.414856	0.000000	-11.135172	-0.396179	6.207254	411.539612
RLowLeg	0.000000	403.151337	0.000000	-15.879393	-0.038285	-2.567663	396.965240
LFoot	0.000000	411.539612	0.000000	86.993790	-9.419292	-7.421347	182.020935
RFoot	0.000000	396.965240	0.000000	85.685738	19.489246	8.810133	181.714371
Neck	0.000000	303.935425	0.000000	26.917892	0.010495	-0.245093	141.112030
Head	0.000000	141.112030	0.000000	-34.290924	-1.751020	-3.852423	164.098740
#Beginning of Data. Separated by tabs.
[LowerTorso]
#Fr	Tx	Ty	Tz	Rx	Ry	Rz	SF
438	44.148312	634.740540	-1381.247925	7.773015	8.244118	-1.231077	1.000000
439	41.694515	643.334167	-1380.204834	7.496752	8.202156	-0.907290	1.000000
440	39.820644	652.568970	-1379.026733	7.216986	8.055174	-0.616263	1.000000
441	38.530167	662.444580	-1377.739624	6.922258	7.818159	-0.356895	1.000000
442	37.716896	672.925171	-1376.260742	6.582858	7.569229	-0.124712	1.000000
443	37.217121	683.924011	-1374.502930	6.221621	7.377113	0.083769	1.000000
444	36.950333	695.308716	-1372.508179	5.901160	7.238546	0.264876	1.000000
[UpperTorso]
#Fr	Tx	Ty	Tz	Rx	Ry	Rz	SF
438	0.000000	0.000000	0.000000	25.561365	-2.209173	0.282738	1.000000
439	0.000000	0.000000	0.000000	24.712112	-2.643043	0.093728	1.000000
440	0.000000	0.000000	0.000000	23.843864	-3.046032	-0.082992	1.000000
441	0.000000	0.000000	0.000000	22.972843	-3.405401	-0.238066	1.000000
442	0.000000	0.000000	0.000000	22.119947	-3.663942	-0.345758	1.000000
443	0.000000	0.000000	0.000000	21.272326	-3.789537	-0.368230	1.000000
444	0.000000	0.000000	0.000000	20.410599	-3.814075	-0.303793	1.000000
[LCollarBone]
#Fr	Tx	Ty	Tz	Rx	Ry	Rz	SF
438	0.000000	0.000000	0.000000	12.748655	5.617916	-8.252359	1.000000
439	0.000000	0.000000	0.000000	12.611132	5.286341	-7.345935	1.000000
440	0.000000	0.000000	0.000000	12.374168	4.935026	-6.480362	1.000000
441	0.000000	0.000000	0.000000	12.130633	4.594077	-5.623729	1.000000
442	0.000000	0.000000	0.000000	11.902045	4.273497	-4.785142	1.000000
443	0.000000	0.000000	0.000000	11.692549	3.970535	-3.952937	1.000000
444	0.000000	0.000000	0.000000	11.479813	3.689983	-3.174116	1.000000
[RCollarBone]
#Fr	Tx	Ty	Tz	Rx	Ry	Rz	SF
438	0.000000	0.000000	0.000000	14.259746	-3.987792	9.186728	1.000000
439	0.000000	0.000000	0.000000	14.430653	-4.011065	9.048107	1.000000
440	0.000000	0.000000	0.000000	14.454489	-3.946847	8.737695	1.000000
441	0.000000	0.000000	0.000000	14.279685	-3.804188	8.350077	1.000000
442	0.000000	0.000000	0.000000	13.845052	-3.597784	8.000353	1.000000
443	0.000000	0.000000	0.000000	13.229369	-3.355933	7.702436	1.000000
444	0.000000	0.000000	0.000000	12.400130	-3.079933	7.486963	1.000000
[LUpArm]
#Fr	Tx	Ty	Tz	Rx	Ry	Rz	SF
438	0.000000	0.000000	0.000000	5.249495	-4.350963	-27.987602	1.000000
439	0.000000	0.000000	0.000000	5.287192	-4.831616	-26.695688	1.000000
440	0.000000	0.000000	0.000000	5.164310	-5.451424	-25.021288	1.000000
441	0.000000	0.000000	0.000000	4.897411	-6.213909	-23.136269	1.000000
442	0.000000	0.000000	0.000000	4.555071	-6.855586	-21.075697	1.000000
443	0.000000	0.000000	0.000000	4.168986	-7.344187	-18.982281	1.000000
444	0.000000	0.000000	0.000000	3.816546	-7.461495	-16.829546	1.000000
[RUpArm]
#Fr	Tx	Ty	Tz	Rx	Ry	Rz	SF
438	0.000000	0.000000	0.000000	3.267511	-4.258619	22.521490	1.000000
439	0.000000	0.000000	0.000000	2.799855	-5.172557	21.812222	1.000000
440	0.000000	0.000000	0.000000	2.357574	-5.780083	20.871746	1.000000
441	0.000000	0.000000	0.000000	1.997322	-6.243724	19.705208	1.000000
442	0.000000	0.000000	0.000000	1.724969	-6.662427	18.285160	1.000000
443	0.000000	0.000000	0.000000	1.489981	-7.083048	16.702780	1.000000
444	0.000000	0.000000	0.000000	1.310541	-7.461020	14.981788	1.000000
[LLowArm]
#Fr	Tx	Ty	Tz	Rx	Ry	Rz	SF
438	0.000000	0.000000	0.000000	5.159359	-0.791671	0.074067	1.000000
439	0.000000	0.000000	0.000000	5.218079	-0.800714	0.074500	1.000000
440	0.000000	0.000000	0.000000	5.178752	-0.794658	0.074212	1.000000
441	0.000000	0.000000	0.000000	5.176229	-0.794269	0.074193	1.000000
442	0.000000	0.000000	0.000000	5.084394	-0.780128	0.073503	1.000000
443	0.000000	0.000000	0.000000	5.126154	-0.786558	0.073819	1.000000
444	0.000000	0.000000	0.000000	5.154733	-0.790959	0.074033	1.000000
[RLowArm]
#Fr	Tx	Ty	Tz	Rx	Ry	Rz	SF
438	0.000000	0.000000	0.000000	8.359431	0.736412	0.042606	1.000000
439	0.000000	0.000000	0.000000	8.424486	0.742108	0.043358	1.000000
440	0.000000	0.000000	0.000000	8.497499	0.748499	0.044211	1.000000
441	0.000000	0.000000	0.000000	8.628313	0.759947	0.045757	1.000000
442	0.000000	0.000000	0.000000	8.861108	0.780311	0.048575	1.000000
443	0.000000	0.000000	0.000000	9.285711	0.817423	0.053927	1.000000
444	0.000000	0.000000	0.000000	9.820575	0.864113	0.061059	1.000000
[LHand]
#Fr	Tx	Ty	Tz	Rx	Ry	Rz	SF
438	0.000000	0.000000	0.000000	1.518648	1.719653	-6.951488	1.000000
439	0.000000	0.000000	0.000000	1.690803	1.581642	-7.138253	1.000000
440	0.000000	0.000000	0.000000	1.880085	0.813949	-6.878901	1.000000
441	0.000000	0.000000	0.000000	2.010801	-0.317016	-6.195149	1.000000
442	0.000000	0.000000	0.000000	2.322974	-1.629870	-5.272111	1.000000
443	0.000000	0.000000	0.000000	2.870776	-2.975302	-4.223582	1.000000
444	0.000000	0.000000	0.000000	3.815533	-4.353612	-3.213109	1.000000
[RHand]
#Fr	Tx	Ty	Tz	Rx	Ry	Rz	SF
438	0.000000	0.000000	0.000000	9.053220	2.269355	0.897141	1.000000
439	0.000000	0.000000	0.000000	7.901310	0.606726	1.981705	1.000000
440	0.000000	0.000000	0.000000	7.061366	-1.023202	3.011360	1.000000
441	0.000000	0.000000	0.000000	6.647049	-2.160694	3.651214	1.000000
442	0.000000	0.000000	0.000000	6.527434	-2.617852	3.675451	1.000000
443	0.000000	0.000000	0.000000	6.560012	-2.453705	3.093357	1.000000
444	0.000000	0.000000	0.000000	6.621228	-1.822853	2.048075	1.000000
[LPelvis]
#Fr	Tx	Ty	Tz	Rx	Ry	Rz	SF
438	0.000000	0.000000	0.000000	0.000000	0.000000	0.000000	1.000000
439	0.000000	0.000000	0.000000	0.000000	0.000000	0.000000	1.000000
440	0.000000	0.000000	0.000000	0.000000	0.000000	0.000000	1.000000
441	0.000000	0.000000	0.000000	0.000000	0.000000	0.000000	1.000000
442	0.000000	0.000000	0.000000	0.000000	0.000000	0.000000	1.000000
443	0.000000	0.000000	0.000000	0.000000	0.000000	0.000000	1.000000
444	0.000000	0.000000	0.000000	0.000000	0.000000	0.000000	1.000000
[RPelvis]
#Fr	Tx	Ty	Tz	Rx	Ry	Rz	SF
438	0.000000	0.000000	0.000000	0.000000	0.000000	0.000000	1.000000
439	0.000000	0.000000	0.000000	0.000000	0.000000	0.000000	1.000000
440	0.000000	0.000000	0.000000	0.000000	0.000000	0.000000	1.000000
441	0.000000	0.000000	0.000000	0.000000	0.000000	0.000000	1.000000
442	0.000000	0.000000	0.000000	0.000000	0.000000	0.000000	1.000000
443	0.000000	0.000000	0.000000	0.000000	0.000000	0.000000	1.000000
444	0.000000	0.000000	0.000000	0.000000	0.000000	0.000000	1.000000
[LThigh]
#Fr	Tx	Ty	Tz	Rx	Ry	Rz	SF
438	0.000000	0.000000	0.000000	66.766541	-8.270982	9.402614	1.000000
439	0.000000	0.000000	0.000000	65.172432	-8.555808	9.228912	1.000000
440	0.000000	0.000000	0.000000	63.454479	-8.901755	9.035685	1.000000
441	0.000000	0.000000	0.000000	61.628551	-9.320695	8.831361	1.000000
442	0.000000	0.000000	0.000000	59.683784	-9.765804	8.615891	1.000000
443	0.000000	0.000000	0.000000	57.654434	-10.175716	8.380048	1.000000
444	0.000000	0.000000	0.000000	55.621861	-10.546072	8.122843	1.000000
[RThigh]
#Fr	Tx	Ty	Tz	Rx	Ry	Rz	SF
438	0.000000	0.000000	0.000000	53.121838	14.232690	-7.232748	1.000000
439	0.000000	0.000000	0.000000	51.959301	14.001103	-7.292320	1.000000
440	0.000000	0.000000	0.000000	50.730347	13.731574	-7.377863	1.000000
441	0.000000	0.000000	0.000000	49.422916	13.384898	-7.500597	1.000000
442	0.000000	0.000000	0.000000	47.968571	12.993998	-7.673563	1.000000
443	0.000000	0.000000	0.000000	46.349140	12.608848	-7.871274	1.000000
444	0.000000	0.000000	0.000000	44.630699	12.250096	-8.039216	1.000000
[LLowLeg]
#Fr	Tx	Ty	Tz	Rx	Ry	Rz	SF
438	0.000000	0.000000	0.000000	-86.271629	5.729445	-3.094943	1.000000
439	0.000000	0.000000	0.000000	-84.306175	5.675269	-2.941057	1.000000
440	0.000000	0.000000	0.000000	-82.186081	5.610969	-2.777251	1.000000
441	0.000000	0.000000	0.000000	-79.949165	5.536621	-2.607121	1.000000
442	0.000000	0.000000	0.000000	-77.597977	5.451395	-2.431569	1.000000
443	0.000000	0.000000	0.000000	-75.109901	5.353453	-2.249766	1.000000
444	0.000000	0.000000	0.000000	-72.493927	5.242074	-2.063390	1.000000
[RLowLeg]
#Fr	Tx	Ty	Tz	Rx	Ry	Rz	SF
438	0.000000	0.000000	0.000000	-76.288895	-3.696729	1.578664	1.000000
439	0.000000	0.000000	0.000000	-74.856750	-3.656828	1.507859	1.000000
440	0.000000	0.000000	0.000000	-73.239731	-3.609666	1.429140	1.000000
441	0.000000	0.000000	0.000000	-71.464737	-3.555362	1.344300	1.000000
442	0.000000	0.000000	0.000000	-69.546059	-3.493736	1.254533	1.000000
443	0.000000	0.000000	0.000000	-67.450928	-3.423050	1.158926	1.000000
444	0.000000	0.000000	0.000000	-65.133377	-3.340843	1.056260	1.000000
[LFoot]
#Fr	Tx	Ty	Tz	Rx	Ry	Rz	SF
438	0.000000	0.000000	0.000000	19.249895	-2.756042	2.016685	1.000000
439	0.000000	0.000000	0.000000	18.888075	-2.761990	1.459604	1.000000
440	0.000000	0.000000	0.000000	18.503183	-2.756438	1.006983	1.000000
441	0.000000	0.000000	0.000000	18.022083	-2.743048	0.544225	1.000000
442	0.000000	0.000000	0.000000	17.452181	-2.735188	0.020218	1.000000
443	0.000000	0.000000	0.000000	16.843630	-2.726821	-0.465855	1.000000
444	0.000000	0.000000	0.000000	16.214996	-2.701140	-0.819845	1.000000
[RFoot]
#Fr	Tx	Ty	Tz	Rx	Ry	Rz	SF
438	0.000000	0.000000	0.000000	21.388096	7.188290	10.636089	1.000000
439	0.000000	0.000000	0.000000	21.150623	7.135328	10.356789	1.000000
440	0.000000	0.000000	0.000000	20.815144	7.075595	10.221774	1.000000
441	0.000000	0.000000	0.000000	20.309288	6.997853	10.199143	1.000000
442	0.000000	0.000000	0.000000	19.628101	6.903504	10.266108	1.000000
443	0.000000	0.000000	0.000000	18.879356	6.801953	10.317715	1.000000
444	0.000000	0.000000	0.000000	18.191330	6.694921	10.224461	1.000000
[Neck]
#Fr	Tx	Ty	Tz	Rx	Ry	Rz	SF
438	0.000000	0.000000	0.000000	-16.991749	0.199855	-0.714306	1.000000
439	0.000000	0.000000	0.000000	-17.112759	0.438133	-0.934479	1.000000
440	0.000000	0.000000	0.000000	-16.918344	0.700168	-1.093862	1.000000
441	0.000000	0.000000	0.000000	-16.473057	0.944134	-1.245029	1.000000
442	0.000000	0.000000	0.000000	-15.821390	1.139185	-1.395251	1.000000
443	0.000000	0.000000	0.000000	-15.029094	1.240838	-1.544946	1.000000
444	0.000000	0.000000	0.000000	-14.153742	1.236958	-1.673247	1.000000
[Head]
#Fr	Tx	Ty	Tz	Rx	Ry	Rz	SF
438	0.000000	0.000000	0.000000	-33.949322	-1.637336	-0.931676	1.000000
439	0.000000	0.000000	0.000000	-34.213055	-1.071814	-1.183696	1.000000
440	0.000000	0.000000	0.000000	-33.884892	-0.456847	-1.352757	1.000000
441	0.000000	0.000000	0.000000	-33.041622	0.168647	-1.510133	1.000000
442	0.000000	0.000000	0.000000	-31.788790	0.744754	-1.684051	1.000000
443	0.000000	0.000000	0.000000	-30.224623	1.193761	-1.901231	1.000000
444	0.000000	0.000000	0.000000	-28.474646	1.462630	-2.143892	1.000000
[EndOfFile]
